<svg width="20" height="20" viewBox="0 0 20 20" fill="none" xmlns="http://www.w3.org/2000/svg">
<g clip-path="url(#clip0_43_10)">
<path d="M10 20C15.5228 20 20 15.5228 20 10C20 4.47715 15.5228 0 10 0C4.47715 0 0 4.47715 0 10C0 15.5228 4.47715 20 10 20Z" fill="#F0F0F0"/>
<path d="M20 10.0001C20 15.5229 15.5228 20.0001 10 20.0001C4.47719 20.0001 0 15.5229 0 10.0001C0 4.47727 10 10.0001 10 10.0001C10 10.0001 17.5688 10.0001 20 10.0001Z" fill="#D80027"/>
<path d="M0 10C0 4.47719 4.47719 0 10 0C10 3.80293 10 10 10 10C10 10 3.47824 10 0 10Z" fill="#0052B4"/>
<path d="M5.95293 3.47827L6.60047 5.47116H8.6959L7.00066 6.7028L7.64816 8.69569L5.95293 7.46401L4.2577 8.69569L4.9052 6.7028L3.20996 5.47116H5.30539L5.95293 3.47827Z" fill="#F0F0F0"/>
</g>
<defs>
<clipPath id="clip0_43_10">
<rect width="20" height="20" fill="white"/>
</clipPath>
</defs>
</svg>
