<svg width="20" height="20" viewBox="0 0 20 20" fill="none" xmlns="http://www.w3.org/2000/svg">
<g clip-path="url(#clip0_43_25)">
<path d="M10 20C15.5228 20 20 15.5228 20 10C20 4.47715 15.5228 0 10 0C4.47715 0 0 4.47715 0 10C0 15.5228 4.47715 20 10 20Z" fill="#F0F0F0"/>
<path d="M9.99992 0C6.03531 0 2.60969 2.30723 0.992188 5.65219H19.0076C17.3902 2.30723 13.9645 0 9.99992 0Z" fill="#338AF3"/>
<path d="M9.99992 20C13.9645 20 17.3902 17.6928 19.0077 14.3478H0.992188C2.60969 17.6928 6.03531 20 9.99992 20Z" fill="#338AF3"/>
<path d="M12.989 10.0001L11.7677 10.5746L12.418 11.7574L11.0918 11.5037L10.9238 12.8434L10.0001 11.858L9.07634 12.8434L8.90833 11.5037L7.58217 11.7573L8.23248 10.5746L7.01123 10.0001L8.23252 9.42562L7.58217 8.24288L8.9083 8.49655L9.07638 7.15686L10.0001 8.14218L10.9238 7.15686L11.0918 8.49655L12.4181 8.24288L11.7677 9.42566L12.989 10.0001Z" fill="#FFDA44"/>
</g>
<defs>
<clipPath id="clip0_43_25">
<rect width="20" height="20" fill="white"/>
</clipPath>
</defs>
</svg>
