<svg width="20" height="20" viewBox="0 0 20 20" fill="none" xmlns="http://www.w3.org/2000/svg">
<g clip-path="url(#clip0_43_9)">
<path d="M10 20C15.5228 20 20 15.5228 20 10C20 4.47715 15.5228 0 10 0C4.47715 0 0 4.47715 0 10C0 15.5228 4.47715 20 10 20Z" fill="#6DA544"/>
<path d="M10.0001 3.91299L18.261 9.99995L10.0001 16.0869L1.73926 9.99995L10.0001 3.91299Z" fill="#FFDA44"/>
<path d="M10.0002 13.4782C11.9212 13.4782 13.4785 11.921 13.4785 9.99997C13.4785 8.07899 11.9212 6.52173 10.0002 6.52173C8.07923 6.52173 6.52197 8.07899 6.52197 9.99997C6.52197 11.921 8.07923 13.4782 10.0002 13.4782Z" fill="#F0F0F0"/>
<path d="M8.26095 9.78253C7.65611 9.78253 7.0724 9.87452 6.52295 10.0452C6.54729 11.9452 8.09431 13.4782 10.0001 13.4782C11.1785 13.4782 12.2193 12.8916 12.8485 11.9951C11.772 10.6475 10.1158 9.78253 8.26095 9.78253Z" fill="#0052B4"/>
<path d="M13.4138 10.6664C13.4556 10.4506 13.4783 10.228 13.4783 9.99997C13.4783 8.07896 11.921 6.52173 10 6.52173C8.56667 6.52173 7.33621 7.38896 6.80371 8.62716C7.27441 8.52962 7.76175 8.47825 8.26093 8.47825C10.2811 8.47821 12.1087 9.31798 13.4138 10.6664Z" fill="#0052B4"/>
</g>
<defs>
<clipPath id="clip0_43_9">
<rect width="20" height="20" fill="white"/>
</clipPath>
</defs>
</svg>
